<svg id="Layer_2" data-name="Layer 2" xmlns="http://www.w3.org/2000/svg" viewBox="0 0 928.64 164.12"><defs><style>.cls-1{fill:#fff;}</style></defs><g id="Layer_1-2" data-name="Layer 1-2"><path class="cls-1" d="M273.12,36.71A82.61,82.61,0,0,0,252,14.79,80.34,80.34,0,0,0,139.87,34L111.08,74.63,89.68,59.47a56.83,56.83,0,1,0,13.55,79.23l12.12-17.12,3-4.28,17.68-25,28.78-40.66a49.82,49.82,0,0,1,69.44-11.88c10.37,7.34,17.78,18.44,19.83,29.7L284.22,64a74.58,74.58,0,0,0-11.09-27.3ZM78.25,121A26.22,26.22,0,1,1,72,84.46L93.4,99.61Z"/><path class="cls-1" d="M314,87.09c-1.62,8.7-5.08,21.23-12.44,31.75a103.63,103.63,0,0,1-44.7,37.42,95.62,95.62,0,0,1-21.82,6.5,92.46,92.46,0,0,1-13.32,1.32,106,106,0,0,1-41.18-7.41A124.25,124.25,0,0,1,153.36,142l-35-24.75,17.68-25,35,24.75a93.47,93.47,0,0,0,20.45,11c42.69,16.43,73.22-8.71,84.53-26.15l.16-.27.18-.25c7.71-10.9,9.62-30.28,8.44-37.19L315,59.08c1.26,7.37.89,17.85-1,28Z"/><path class="cls-1" d="M388.1,48.07c-7.5-1.48-14.67-2.6-20-4.63s-8.75-5-8.75-10.22C359.38,24,366.81,18,379,18c14.36,0,22.11,6.09,23.94,19.44l20.78-3.55C419.89,12.42,403.78.54,379.2.54s-40.61,14.2-40.61,34.16c0,21.79,19.81,27.74,38,31.36,15,3,27.23,5.29,27.23,14.86S396.21,96.6,383,96.6c-15.65,0-23.08-5.59-25.73-19.73L349,78.28l-12.68,2.17c4.63,21.08,20,33.65,47.51,33.65,25.41,0,40.93-13.86,40.93-34.82,0-22.12-18.65-27.73-36.65-31.2Z"/><path class="cls-1" d="M798.75,65.08l-3.08-.6a67,67,0,0,1-10.82-2.61c-4.35-1.68-5-3.68-5-5.42,0-5.52,4.48-8.81,12-8.81,9.28,0,13.92,3.74,15.08,12.12l.28,2.06,18.84-3.22-.35-2c-2.9-16.17-15.19-25.45-33.72-25.45s-30.95,11.09-30.95,26.35c0,18.6,18.65,22.32,28.67,24.32l.38.07c10.79,2.15,17.41,3.7,17.41,8.55,0,8-8,9.17-12.81,9.17-10.23,0-14.67-3.37-16.36-12.43L778,85.25l-18.94,3.24.45,2.06c3.67,16.71,16.06,25.55,35.81,25.55s31.18-10.53,31.18-26.83c0-18.85-18-22.33-27.74-24.2Z"/><path class="cls-1" d="M588.06,6.56h19.8l17.59,74,21.85-74h17.8l21.69,74.19L704.54,6.56H723.7L696.18,114.1H676.74l-21-71.88L634.52,114.1H614.93L588.05,6.56Z"/><path class="cls-1" d="M728.7,32.75h20.63V114.1H728.7Z"/><path class="cls-1" d="M738.8,6.56h.43A10.43,10.43,0,0,1,749.66,17h0a10.43,10.43,0,0,1-10.43,10.42h-.43A10.43,10.43,0,0,1,728.37,17h0A10.43,10.43,0,0,1,738.8,6.56Z"/><path class="cls-1" d="M486.81,36.74A31.06,31.06,0,0,1,500,48a37.44,37.44,0,0,1,6.08,15.78A98.12,98.12,0,0,1,506.74,79H451.16q.46,11.49,8,16.1a20.3,20.3,0,0,0,11,2.87q6.83,0,11.08-3.5a16.8,16.8,0,0,0,4.11-5.25H505.7q-.81,6.8-7.4,13.79-10.24,11.13-28.71,11.13a41.58,41.58,0,0,1-26.88-9.39q-11.64-9.39-11.64-30.55,0-19.83,10.51-30.41t27.29-10.58a43.39,43.39,0,0,1,17.95,3.58ZM457,54q-4.23,4.37-5.31,11.81H486q-.54-8-5.31-12.06a17.5,17.5,0,0,0-11.83-4.11Q461.2,49.62,457,54Z"/><path class="cls-1" d="M568.82,36.74A31.06,31.06,0,0,1,582,48a37.44,37.44,0,0,1,6.08,15.78A98.12,98.12,0,0,1,588.75,79H533.17q.47,11.49,8,16.1a20.3,20.3,0,0,0,11,2.87q6.83,0,11.08-3.5a16.8,16.8,0,0,0,4.11-5.25h20.37q-.81,6.8-7.4,13.79-10.24,11.13-28.71,11.13a41.58,41.58,0,0,1-26.88-9.39q-11.64-9.39-11.64-30.55,0-19.83,10.51-30.41t27.29-10.58a43.39,43.39,0,0,1,18,3.58ZM539,54q-4.23,4.37-5.31,11.81H568q-.54-8-5.31-12.06a17.5,17.5,0,0,0-11.83-4.11q-7.68,0-11.91,4.36Z"/><path class="cls-1" d="M894.41,82.92c-1.41,7.27-5.59,13.77-17.54,15.78-11.45,1.93-20.06-3.3-23.38-14.68l58.42-9.85L910.7,67c-4.29-25.45-21.54-39.23-46-35.12-23.57,4-37.38,24.22-33.17,49.16,4.23,25.11,22.65,38.52,47.77,34.29,21-3.54,31.19-15.09,34.63-29l-19.54-3.38ZM867,48.37c10.93-1.84,18.26,3.07,21.1,14.72L850.67,69.4c-.36-11.53,6.06-19.29,16.31-21Z"/><path class="cls-1" d="M345.93,137.81H336.3v-3.24h23.11v3.24h-9.63v25.66h-3.84V137.81Z"/><path class="cls-1" d="M382,134.58h3.84V147h15.22V134.58h3.84v28.89h-3.84V150.24H385.87v13.23H382Z"/><path class="cls-1" d="M430.68,134.58h19.95v3.24H434.52V147h15v3.24h-15v10h16.23v3.24H430.68V134.58Z"/><path class="cls-1" d="M513.36,134.58h4.25l11.29,28.89h-4.25l-3.16-8.7H509.27l-3.24,8.7H502.1l11.25-28.89Zm-2.87,17h9.79l-4.82-13.48h-.08l-4.9,13.48Z"/><path class="cls-1" d="M551.32,134.58h3.84v28.89h-3.84Z"/><path class="cls-1" d="M611.74,134.58h19v3.24H615.58V147h13.27v3.24H615.58v13.23h-3.84V134.59Z"/><path class="cls-1" d="M660,134.58h4.25l11.29,28.89h-4.25l-3.16-8.7H655.93l-3.24,8.7h-3.93L660,134.58Zm-2.87,17h9.79l-4.82-13.48H662l-4.9,13.48Z"/><path class="cls-1" d="M718.14,143.28a7.12,7.12,0,0,0-2.85-4.61,8.9,8.9,0,0,0-5.24-1.54,9.35,9.35,0,0,0-4.43,1,8.71,8.71,0,0,0-3,2.61,11.22,11.22,0,0,0-1.76,3.74,16.63,16.63,0,0,0-.57,4.37,18.56,18.56,0,0,0,.57,4.67,11.1,11.1,0,0,0,1.76,3.84,8.72,8.72,0,0,0,3.06,2.61,9.46,9.46,0,0,0,4.45,1,8.56,8.56,0,0,0,3.38-.63,7.81,7.81,0,0,0,2.55-1.74,8.1,8.1,0,0,0,1.68-2.65,10.8,10.8,0,0,0,.73-3.32h3.84a13.17,13.17,0,0,1-3.76,8.5q-3.19,3-8.74,3a13.91,13.91,0,0,1-5.87-1.15,11.6,11.6,0,0,1-4.17-3.18,13.56,13.56,0,0,1-2.49-4.77,20.49,20.49,0,0,1-.83-5.91,19.38,19.38,0,0,1,.89-5.93,14.21,14.21,0,0,1,2.61-4.84,12.24,12.24,0,0,1,4.29-3.26,13.77,13.77,0,0,1,5.89-1.19,14.68,14.68,0,0,1,4.29.61,11.65,11.65,0,0,1,3.6,1.78,10,10,0,0,1,2.63,2.93,10.83,10.83,0,0,1,1.38,4.07h-3.84Z"/><path class="cls-1" d="M753,137.81h-9.63v-3.24H766.5v3.24h-9.63v25.66H753V137.81Z"/><path class="cls-1" d="M787.5,149a18.69,18.69,0,0,1,.87-5.69,14.33,14.33,0,0,1,2.61-4.84,12.79,12.79,0,0,1,4.33-3.36,13.65,13.65,0,0,1,6-1.25,13.79,13.79,0,0,1,6,1.25,12.79,12.79,0,0,1,4.33,3.36,14.24,14.24,0,0,1,2.61,4.84,19,19,0,0,1,0,11.38,14.42,14.42,0,0,1-2.61,4.84,12.5,12.5,0,0,1-4.33,3.34,15.4,15.4,0,0,1-12.06,0,12.5,12.5,0,0,1-4.33-3.34,14.24,14.24,0,0,1-2.61-4.84A18.69,18.69,0,0,1,787.5,149Zm3.84,0a16.57,16.57,0,0,0,.57,4.31,11.65,11.65,0,0,0,1.78,3.82,9.15,9.15,0,0,0,3.12,2.73,10.48,10.48,0,0,0,9.06,0,9.15,9.15,0,0,0,3.12-2.73,11.75,11.75,0,0,0,1.78-3.82,16.58,16.58,0,0,0,0-8.62,11.65,11.65,0,0,0-1.78-3.82,9.15,9.15,0,0,0-3.12-2.73,10.48,10.48,0,0,0-9.06,0,9.15,9.15,0,0,0-3.12,2.73,11.75,11.75,0,0,0-1.78,3.82A16.57,16.57,0,0,0,791.34,149Z"/><path class="cls-1" d="M839.3,134.58h13.6a9.5,9.5,0,0,1,6.45,2,7,7,0,0,1,2.33,5.54,8.81,8.81,0,0,1-1.19,4.61,6.14,6.14,0,0,1-3.82,2.71v.08a5,5,0,0,1,2,.81,4.52,4.52,0,0,1,1.26,1.36,6.21,6.21,0,0,1,.69,1.76,18.1,18.1,0,0,1,.34,2c0,.7.09,1.42.12,2.14a18.69,18.69,0,0,0,.2,2.14,12.43,12.43,0,0,0,.47,2,5.06,5.06,0,0,0,.91,1.68h-4.29a2.47,2.47,0,0,1-.55-1.21,12.13,12.13,0,0,1-.18-1.72c0-.63,0-1.32-.08-2a15.07,15.07,0,0,0-.24-2.14c-.11-.7-.24-1.37-.4-2a4.7,4.7,0,0,0-.77-1.66,3.75,3.75,0,0,0-1.38-1.13,5.17,5.17,0,0,0-2.27-.42h-9.39v12.34h-3.84V134.58Zm11.86,13.31a16.07,16.07,0,0,0,2.55-.2,5.6,5.6,0,0,0,2.12-.79,4.36,4.36,0,0,0,1.46-1.58,5.35,5.35,0,0,0,.55-2.57,5.17,5.17,0,0,0-1.21-3.56,5,5,0,0,0-3.93-1.38h-9.55v10.08Z"/><path class="cls-1" d="M896.89,151.65v11.82h-3.84V151.65l-11.17-17.08h4.57l8.66,13.76,8.46-13.76h4.37Z"/><path class="cls-1" d="M915.13.4a13.51,13.51,0,1,1-13.5,13.51A13.53,13.53,0,0,1,915.13.4Zm11.76,13.5a11.75,11.75,0,1,0-11.76,11.76A11.77,11.77,0,0,0,926.89,13.9Z"/><path class="cls-1" d="M918.88,15.31c.21-.8.41-1.57.62-2.34l.78-3c0-.13.1-.17.23-.17h2.13c.14,0,.19,0,.19.19v7.79c0,.18,0,.19-.2.19h-1.18c-.18,0-.19,0-.19-.19v-6h0c-.1.39-.2.77-.29,1.16q-.62,2.41-1.21,4.83c0,.14-.1.19-.24.19h-1.21c-.15,0-.21-.05-.25-.2L916.57,12s0-.09-.05-.13v6c0,.21,0,.22-.21.22h-1.17c-.13,0-.18-.05-.18-.18V10c0-.13,0-.18.18-.18h2.14c.15,0,.18.07.21.19.46,1.72.91,3.44,1.37,5.17a.54.54,0,0,0,0,.12Z"/><path class="cls-1" d="M911.54,14.61v3.18c0,.21,0,.21-.2.21h-1.27c-.19,0-.2,0-.2-.2V11.51a.21.21,0,0,0-.24-.24h-2c-.18,0-.19,0-.19-.19V10c0-.13,0-.18.18-.18h6.14c.13,0,.18,0,.17.17V11.1c0,.14-.06.18-.19.18h-2c-.15,0-.19.05-.19.19v3.14Z"/></g></svg>