<?xml version="1.0" encoding="UTF-8"?>
<svg width="929px" height="167px" viewBox="0 0 929 167" version="1.1" xmlns="http://www.w3.org/2000/svg" xmlns:xlink="http://www.w3.org/1999/xlink">
    <!-- Generator: Sketch 51.3 (57544) - http://www.bohemiancoding.com/sketch -->
    <title>SW  tagline</title>
    <desc>Created with Sketch.</desc>
    <defs></defs>
    <g id="Page-1" stroke="none" stroke-width="1" fill="none" fill-rule="evenodd">
        <g id="SW--tagline" fill-rule="nonzero">
            <g id="Group" fill="#50AAD0">
                <path d="M273.1,36.7 C267.6,28.2 260.2,20.7 251.9,14.8 C243,8.5 233.2,4.2 222.7,1.9 C212.6,-0.3 202.2,-0.6 191.9,1.2 C181.6,3 171.9,6.6 163.1,12.1 C153.9,17.8 146.1,25.1 139.9,34 L111.1,74.7 L89.7,59.5 C77.3,50.7 62.2,47.3 47.3,49.9 C32.3,52.4 19.3,60.7 10.5,73.1 C1.7,85.5 -1.7,100.6 0.9,115.5 C3.5,130.5 11.7,143.5 24.1,152.3 C36.5,161.1 51.5,164.5 66.5,161.9 C81.5,159.3 94.5,151.1 103.3,138.7 L115.4,121.6 L118.4,117.3 L136.1,92.3 L164.9,51.6 C172.6,40.7 184,33.5 197.2,31.3 C210.4,29.1 223.5,32.1 234.4,39.7 C244.8,47 252.2,58.1 254.2,69.4 L284.3,63.9 C282.5,54.6 278.7,45.2 273.1,36.7 Z M78.2,121 C74.1,126.7 68.1,130.5 61.2,131.7 C54.3,132.9 47.3,131.3 41.6,127.3 C35.9,123.2 32.1,117.2 30.9,110.3 C29.7,103.4 31.3,96.4 35.3,90.7 C39.3,85 45.4,81.2 52.3,80 C59.2,78.8 66.2,80.4 71.9,84.4 L93.3,99.6 C93.4,99.6 78.2,121 78.2,121 Z" id="Shape"></path>
                <path d="M314,87.1 C312.4,95.8 308.9,108.3 301.6,118.9 C291.1,134.9 274.9,148.6 256.9,156.3 C249.8,159.4 242.5,161.5 235.1,162.8 C230.7,163.6 226.3,164 221.8,164.1 C208.3,164.5 194.4,162 180.6,156.7 C171.2,153.1 162,148.1 153.5,142.1 L118.5,117.3 L136.2,92.3 L171.2,117.1 C177.7,121.7 184.6,125.4 191.6,128.1 C234.3,144.5 264.8,119.4 276.1,101.9 L276.3,101.6 L276.5,101.4 C284.2,90.5 286.1,71.1 284.9,64.2 L315.1,59 C316.2,66.4 315.9,76.9 314,87.1 Z" id="Shape"></path>
            </g>
            <g id="Group" transform="translate(336.000000, 50.000000)">
                <path d="M52.1,48.1 C44.6,46.6 37.4,45.5 32.1,43.5 C26.8,41.5 23.3,38.5 23.3,33.3 C23.3,24.1 30.7,18.1 42.9,18.1 C57.3,18.1 65,24.2 66.8,37.5 L87.6,34 C83.7,12.5 67.6,0.6 43.1,0.6 C18.6,0.6 2.5,14.8 2.5,34.8 C2.5,56.6 22.3,62.5 40.5,66.2 C55.5,69.2 67.7,71.5 67.7,81.1 C67.7,90.7 60.1,96.8 46.9,96.8 C31.3,96.8 23.8,91.2 21.2,77.1 L12.9,78.5 L0.2,80.7 C4.8,101.8 20.2,114.4 47.7,114.4 C73.1,114.4 88.6,100.5 88.6,79.6 C88.8,57.2 70.1,51.5 52.1,48.1 Z" id="Shape" fill="#000533"></path>
                <path d="M462.8,65.1 C461.8,64.9 460.7,64.7 459.7,64.5 C455.6,63.7 451.7,63 448.9,61.9 C444.6,60.2 443.9,58.2 443.9,56.5 C443.9,51 448.4,47.7 455.9,47.7 C465.2,47.7 469.8,51.4 471,59.8 L471.3,61.9 L490.1,58.7 L489.8,56.7 C486.9,40.5 474.6,31.2 456.1,31.2 C437.6,31.2 425.1,42.3 425.1,57.6 C425.1,76.2 443.8,79.9 453.8,81.9 L454.2,82 C465,84.2 471.6,85.7 471.6,90.6 C471.6,98.6 463.6,99.8 458.8,99.8 C448.6,99.8 444.1,96.4 442.4,87.4 L442,85.5 L423,88.5 L423.5,90.6 C427.2,107.3 439.6,116.1 459.3,116.1 C479,116.1 490.5,105.6 490.5,89.3 C490.5,70.4 472.4,66.9 462.8,65.1 Z" id="Shape" fill="#000533"></path>
                <polygon id="Shape" fill="#000533" points="252.1 6.6 271.9 6.6 289.5 80.6 311.3 6.6 329.1 6.6 350.8 80.8 368.6 6.6 387.8 6.6 360.3 114.1 340.9 114.1 319.9 42.2 298.7 114.1 279.1 114.1"></polygon>
                <polygon id="Shape" fill="#000533" points="392.7 32.8 413.3 32.8 413.3 114.1 392.7 114.1"></polygon>
                <path d="M402.8,6.6 L403.2,6.6 C409,6.6 413.6,11.3 413.6,17 C413.6,22.8 408.9,27.4 403.2,27.4 L402.8,27.4 C397,27.4 392.4,22.7 392.4,17 C392.4,11.2 397,6.6 402.8,6.6 Z" id="Shape" fill="#50AAD0"></path>
                <path d="M150.8,36.7 C156.1,39.1 160.5,42.9 164,48 C167.1,52.5 169.1,57.8 170.1,63.8 C170.6,67.3 170.9,72.3 170.8,78.9 L115.2,78.9 C115.5,86.6 118.2,91.9 123.2,95 C126.2,96.9 129.9,97.9 134.2,97.9 C138.7,97.9 142.4,96.7 145.3,94.4 C146.8,93.1 148.2,91.4 149.4,89.2 L169.8,89.2 C169.3,93.7 166.8,98.3 162.4,103 C155.6,110.4 146,114.1 133.7,114.1 C123.5,114.1 114.6,111 106.8,104.7 C99,98.4 95.2,88.3 95.2,74.2 C95.2,61 98.7,50.8 105.7,43.8 C112.7,36.8 121.8,33.2 133,33.2 C139.5,33.2 145.5,34.4 150.8,36.7 Z M121,54 C118.2,56.9 116.4,60.8 115.7,65.8 L150,65.8 C149.6,60.5 147.9,56.5 144.7,53.7 C141.5,50.9 137.6,49.6 132.9,49.6 C127.8,49.6 123.8,51.1 121,54 Z" id="Shape" fill="#000533"></path>
                <path d="M232.8,36.7 C238.1,39.1 242.5,42.9 246,48 C249.1,52.5 251.2,57.8 252.1,63.8 C252.6,67.3 252.9,72.3 252.8,78.9 L197.2,78.9 C197.5,86.6 200.2,91.9 205.2,95 C208.2,96.9 211.9,97.9 216.2,97.9 C220.7,97.9 224.4,96.7 227.3,94.4 C228.8,93.1 230.2,91.4 231.4,89.2 L251.8,89.2 C251.3,93.7 248.8,98.3 244.4,103 C237.6,110.4 228,114.1 215.7,114.1 C205.5,114.1 196.6,111 188.8,104.7 C181,98.4 177.2,88.3 177.2,74.2 C177.2,61 180.7,50.8 187.7,43.8 C194.7,36.8 203.8,33.2 215,33.2 C221.5,33.2 227.5,34.4 232.8,36.7 Z M203,54 C200.2,56.9 198.4,60.8 197.7,65.8 L232,65.8 C231.6,60.5 229.9,56.5 226.7,53.7 C223.5,50.9 219.6,49.6 214.9,49.6 C209.8,49.6 205.8,51.1 203,54 Z" id="Shape" fill="#000533"></path>
                <path d="M558.4,82.9 C557,90.2 552.8,96.7 540.9,98.7 C529.4,100.6 520.8,95.4 517.5,84 L575.9,74.2 L574.7,67 C570.4,41.5 553.2,27.8 528.7,31.9 C505.1,35.9 491.3,56.1 495.5,81.1 C499.7,106.2 518.2,119.6 543.3,115.4 C564.3,111.9 574.5,100.3 577.9,86.4 L558.4,82.9 Z M531,48.4 C541.9,46.6 549.3,51.5 552.1,63.1 L514.7,69.4 C514.3,57.9 520.7,50.1 531,48.4 Z" id="Shape" fill="#000533"></path>
            </g>
            <g id="Group" transform="translate(901.000000, 50.000000)">
                <path d="M14.1,0.4 C21.6,0.4 27.6,6.4 27.6,13.9 C27.6,21.4 21.6,27.4 14.1,27.4 C6.6,27.4 0.6,21.4 0.6,13.9 C0.6,6.4 6.7,0.4 14.1,0.4 Z M25.9,13.9 C25.9,7.4 20.6,2.2 14.2,2.1 C7.7,2.1 2.4,7.3 2.4,13.8 C2.4,20.3 7.7,25.6 14.1,25.6 C20.6,25.7 25.9,20.4 25.9,13.9 Z" id="Shape" fill="#000533"></path>
                <path d="M17.9,15.3 C18.1,14.5 18.3,13.7 18.5,13 C18.8,12 19,11 19.3,10 C19.3,9.9 19.4,9.8 19.5,9.8 C20.2,9.8 20.9,9.8 21.6,9.8 C21.7,9.8 21.8,9.8 21.8,10 C21.8,12.6 21.8,15.2 21.8,17.8 C21.8,18 21.8,18 21.6,18 C21.2,18 20.8,18 20.4,18 C20.2,18 20.2,18 20.2,17.8 C20.2,15.9 20.2,13.9 20.2,12 C20.2,11.9 20.2,11.9 20.2,11.8 C20.2,11.8 20.2,11.8 20.2,11.8 C20.1,12.2 20,12.6 19.9,13 C19.5,14.6 19.1,16.2 18.7,17.8 C18.7,17.9 18.6,18 18.5,18 C18.1,18 17.7,18 17.3,18 C17.1,18 17.1,18 17.1,17.8 C16.6,15.9 16.1,13.9 15.6,11.9 C15.6,11.9 15.6,11.8 15.6,11.8 C15.6,12.4 15.6,13.1 15.6,13.7 C15.6,15.1 15.6,16.4 15.6,17.8 C15.6,18 15.6,18 15.4,18 C15,18 14.6,18 14.2,18 C14.1,18 14,18 14,17.8 C14,15.2 14,12.6 14,10 C14,9.9 14,9.8 14.2,9.8 C14.9,9.8 15.6,9.8 16.3,9.8 C16.5,9.8 16.5,9.9 16.5,10 C17,11.7 17.4,13.4 17.9,15.2 C17.9,15.2 17.9,15.3 17.9,15.3 Z" id="Shape" fill="#000000"></path>
                <path d="M10.5,14.6 C10.5,15.7 10.5,16.7 10.5,17.8 C10.5,18 10.5,18 10.3,18 C9.9,18 9.5,18 9,18 C8.8,18 8.8,18 8.8,17.8 C8.8,15.7 8.8,13.6 8.8,11.5 C8.8,11.3 8.7,11.3 8.6,11.3 C7.9,11.3 7.3,11.3 6.6,11.3 C6.4,11.3 6.4,11.3 6.4,11.1 C6.4,10.7 6.4,10.4 6.4,10 C6.4,9.9 6.4,9.8 6.6,9.8 C8.6,9.8 10.7,9.8 12.7,9.8 C12.8,9.8 12.9,9.8 12.9,10 C12.9,10.4 12.9,10.7 12.9,11.1 C12.9,11.2 12.8,11.3 12.7,11.3 C12,11.3 11.3,11.3 10.7,11.3 C10.5,11.3 10.5,11.4 10.5,11.5 C10.5,12.5 10.5,13.6 10.5,14.6 Z" id="Shape" fill="#000000"></path>
            </g>
        </g>
    </g>
</svg>